<svg enable-background="new 0 0 128 153" viewBox="0 0 128 153" xmlns="http://www.w3.org/2000/svg"><path d="m0 0h128v153h-128z" fill="#fbc531"/><path d="m28.416 12.271c-.359 6.458-1.292 13.447-7.003 17.499-5.985 4.244-14.13 4.841-21.413 4.504v-34.274h28.409c.095 4.349.202 8.732.007 12.271z" fill="#192a56"/><path d="m21.013 12.496c-.486 2.795-.417 4.111-1.268 6.82-.959 3.056-2.943 4.212-6.147 5.338-4.535 1.59-8.865 1.649-13.598 1.476v-26.13h21.792c.069 4.288-.181 9.056-.779 12.496z" fill="#fbc531"/><path d="m12.914 0c-.154 1.729-.307 3.458-.305 5.188.004 3.427-.137 7.735-1.442 10.715-.995 2.273-6.116 3.233-11.167 3.119v-19.022z" fill="#192a56"/><path d="m4.176 5.865c-.361 1.479-2.299 2.188-4.176 2.167v-8.032h4.53c.163 2.264-.027 4.529-.354 5.865z" fill="#fbc531"/><path d="m91.468 7.684c.061 1.343-.201 3.323-.293 8.588-.047 7.722-3.586 13.085-11.385 15.862-6.756 2.406-11.109 1.835-18.237 2.174-6.297.299-12.966-.839-18.259-4.502-5.623-3.89-7.653-13.013-7.301-19.647.158-2.972.107-6.529.029-10.159h55.565c-.184 2.545-.24 5.012-.119 7.684z" fill="#385ec0"/><path d="m84.608 9.3c.197 1.28-.126 3.234-.753 7.767-.984 2.372-1.057 4.019-3.387 6.119-2.2 1.981-5.184 2.593-7.921 3.15-5.233 1.068-8.633.929-13.916.128-5.316-.805-11.626-1.05-14.18-6.586-2.249-4.87-1.051-10.422-1.557-15.588-.127-1.286-.212-2.745-.253-4.29h42.077c.022 1.053-.199 2.175-.11 3.287.11 1.368-.208 4.66 0 6.013z" fill="#192a56"/><path d="m75.69 10.62c-.955 4.525-4.539 5.754-8.707 6.555-8.275 1.59-14.707-1.599-15.668-10.382-.249-2.264-.103-4.529.092-6.793h24.763c.004.081.007.162.013.245.2 3.463.228 6.967-.493 10.375z" fill="#385ec0"/><path d="m68.95 0c-.056 2.264-.677 4.335-2.625 5.365-4.163 2.204-5.87-1.356-6.352-5.365z" fill="#192a56"/><path d="m128 0v34.274c-.19-.007-.379-.016-.567-.027-6.474-.342-15.524-.472-20.941-4.383-5.493-3.964-5.547-12.523-5.549-18.783 0-3.35-.61-6.665-.293-10.016.034-.358.067-.711.094-1.064h27.256z" fill="#192a56"/><path d="m128 0v26.13c-.854-.029-1.722-.068-2.607-.106-5.914-.256-13.723-.692-16.084-7.265-1.805-5.026-1.94-6.656-1.507-11.776.201-2.377.524-4.691.007-6.984h20.191z" fill="#fbc531"/><path d="m128 0v19.022c-5.34-.121-10.602-1.441-10.838-3.677-.919-2.293-.95-4.212-1.149-7.562-.166-2.793.26-5.091.253-7.783h11.734z" fill="#192a56"/><path d="m128 0v8.032c-1.564-.014-3.085-.538-3.613-1.549-.227-1.588-.822-4.073-.919-6.483z" fill="#fbc531"/><path d="m28.416 141.838c-.172 3.243-.096 7.189-.007 11.162h-28.409v-35.212c.907-.022 1.855-.052 2.858-.099 6.295-.299 12.966.839 18.259 4.502 5.621 3.89 7.651 13.013 7.299 19.647z" fill="#192a56"/><path d="m21.792 153h-21.792v-28.079c1.781.068 3.624.286 5.78.612 5.314.805 11.626 1.05 14.18 6.586 2.247 4.869 1.051 10.421 1.557 15.588.154 1.562.246 3.379.275 5.293z" fill="#fbc531"/><path d="m12.914 153h-12.914v-18.52c7.009-.506 12.236 2.876 13.094 10.724.286 2.599.051 5.197-.18 7.796z" fill="#192a56"/><path d="m4.53 153h-4.53v-7.018c3.071-.364 4.27 3.325 4.53 7.018z" fill="#fbc531"/><path d="m91.761 150.934c-.067.697-.125 1.385-.173 2.066h-55.566c-.097-4.671-.238-9.463-.027-13.274.358-6.458 1.29-13.445 7.003-17.499 6.142-4.356 14.554-4.868 21.98-4.477 6.474.342 15.524.472 20.941 4.383 5.493 3.964 5.547 12.525 5.549 18.783 0 3.35.611 6.665.293 10.018z" fill="#385ec0"/><path d="m84.608 152.028c.072.315.103.641.11.972h-42.077c-.128-4.531.11-9.789.755-13.499.486-2.795.419-4.111 1.268-6.818.959-3.058 2.943-4.214 6.149-5.34 5.354-1.878 10.425-1.621 16.205-1.37 5.914.256 13.723.691 16.084 7.265 1.804 5.026 1.94 6.658 1.507 11.776-.202 2.387-.529 4.71-.001 7.014z" fill="#192a56"/><path d="m76.17 153h-24.763c.179-2.064.397-4.128.396-6.191-.005-3.427.135-7.735 1.44-10.715 2.048-4.675 21.546-3.796 22.007.558.919 2.292.95 4.212 1.149 7.562.185 3.133-.375 5.643-.229 8.786z" fill="#385ec0"/><path d="m68.95 153h-8.978c-.309-2.575-.114-5.334.26-6.868.661-2.709 6.631-2.838 7.791-.618.259 1.81.998 4.785.927 7.486z" fill="#192a56"/><path d="m128 117.788v35.212h-27.256c.246-2.905.336-5.664.199-8.687-.061-1.343.201-3.322.293-8.588.047-7.72 3.586-13.085 11.385-15.862 5.805-2.068 9.837-1.936 15.379-2.075z" fill="#192a56"/><path d="m128 124.921v28.079h-20.19c-.002-.011-.005-.02-.007-.031-.302-1.316.116-2.799 0-4.259-.108-1.369.208-4.661 0-6.013-.197-1.28.128-3.234.753-7.767.984-2.372 1.057-4.018 3.387-6.119 2.2-1.981 5.184-2.591 7.921-3.15 3.098-.632 5.553-.841 8.136-.74z" fill="#fbc531"/><path d="m128 134.48v18.52h-11.734c-.002-.405-.013-.819-.038-1.248-.201-3.463-.228-6.966.493-10.375.956-4.524 4.539-5.754 8.707-6.555.879-.169 1.739-.284 2.572-.342z" fill="#192a56"/><path d="m128 145.982v7.018h-4.532c-.107-2.64.387-5.188 2.617-6.368.707-.374 1.344-.581 1.915-.65z" fill="#fbc531"/><path d="m128 41.29v69.484c-.19-.007-.379-.016-.567-.027-6.474-.342-15.524-.472-20.941-4.383-5.493-3.964-5.547-12.525-5.549-18.783 0-3.35-.61-6.665-.293-10.018.314-3.301.446-6.361.293-9.75-.061-1.343.201-3.323.293-8.586.047-7.722 3.586-13.087 11.385-15.864 5.805-2.068 9.837-1.936 15.379-2.073z" fill="#385ec0"/><path d="m128 48.421v54.209c-.854-.029-1.722-.068-2.607-.106-5.914-.256-13.723-.692-16.084-7.265-1.805-5.026-1.94-6.658-1.507-11.776.201-2.388.527-4.711 0-7.014-.302-1.316.116-2.799 0-4.259-.108-1.369.208-4.661 0-6.013-.197-1.28.128-3.233.753-7.767.984-2.372 1.057-4.018 3.387-6.118 2.2-1.983 5.184-2.593 7.921-3.152 3.097-.629 5.552-.84 8.137-.739z" fill="#192a56"/><path d="m128 57.98v37.542c-5.34-.121-10.602-1.441-10.838-3.677-.919-2.293-.95-4.212-1.149-7.562-.191-3.215.403-5.773.215-9.031-.201-3.463-.228-6.966.493-10.375.956-4.524 4.539-5.754 8.707-6.555.879-.169 1.739-.284 2.572-.342z" fill="#385ec0"/><path d="m128 69.482v15.05c-1.564-.014-3.085-.538-3.613-1.549-.475-3.328-2.57-10.592 1.698-12.851.708-.374 1.344-.583 1.915-.65z" fill="#192a56"/><path d="m91.176 92.772c-.047 7.722-3.586 13.086-11.386 15.863-6.756 2.405-11.108 1.834-18.237 2.173-6.296.299-12.966-.839-18.259-4.501-5.623-3.891-7.652-13.013-7.3-19.647.361-6.795-.375-16.661 0-23.432.358-6.458 1.29-13.447 7.003-17.499 6.142-4.356 14.554-4.869 21.98-4.477 6.474.342 15.523.471 20.941 4.382 5.492 3.964 5.547 12.525 5.549 18.783.001 3.35.61 6.666.292 10.018-.314 3.303-.446 6.362-.291 9.751.062 1.342-.201 3.321-.292 8.586z" fill="#192a56"/><path d="m83.855 93.567c-.984 2.372-1.056 4.019-3.388 6.119-2.2 1.982-5.183 2.593-7.921 3.151-5.232 1.066-8.633.929-13.916.128-5.316-.806-11.626-1.05-14.18-6.586-2.247-4.87-1.051-10.421-1.557-15.589-.495-5.06-.362-12.815.503-17.788.486-2.795.419-4.112 1.269-6.819.959-3.057 2.943-4.214 6.148-5.338 5.355-1.879 10.426-1.622 16.206-1.371 5.914.256 13.722.691 16.083 7.265 1.805 5.025 1.94 6.656 1.508 11.775-.202 2.388-.528 4.711 0 7.015.302 1.315-.116 2.799 0 4.259.109 1.367-.208 4.66 0 6.013.195 1.279-.13 3.232-.755 7.766z" fill="#fbc531"/><path d="m75.249 60.152c.919 2.292.95 4.212 1.149 7.562.191 3.213-.403 5.772-.215 9.031.2 3.463.227 6.966-.493 10.374-.956 4.525-4.539 5.754-8.706 6.555-8.276 1.591-14.707-1.599-15.669-10.381-.474-4.328.492-8.655.487-12.984-.004-3.427.136-7.735 1.441-10.715 2.048-4.676 21.546-3.796 22.006.558z" fill="#192a56"/><path d="m68.023 69.014c.476 3.328 2.571 10.592-1.697 12.851-6.837 3.619-7.05-8.31-6.092-12.234.66-2.709 6.629-2.838 7.789-.617z" fill="#fbc531"/><path d="m28.416 88.771c-.359 6.458-1.292 13.447-7.003 17.499-5.984 4.245-14.129 4.839-21.413 4.504v-69.484c.907-.023 1.855-.052 2.858-.101 6.295-.299 12.966.839 18.259 4.502 5.621 3.89 7.652 13.013 7.299 19.647-.361 6.795.374 16.662 0 23.433z" fill="#385ec0"/><path d="m21.013 88.996c-.486 2.795-.417 4.111-1.268 6.818-.959 3.058-2.943 4.214-6.147 5.34-4.536 1.59-8.866 1.65-13.598 1.477v-54.21c1.783.07 3.624.285 5.78.612 5.314.805 11.626 1.05 14.18 6.586 2.247 4.869 1.051 10.422 1.557 15.588.495 5.061.362 12.815-.504 17.789z" fill="#192a56"/><path d="m12.608 81.688c.004 3.427-.137 7.735-1.442 10.715-.994 2.273-6.115 3.233-11.166 3.119v-37.542c7.009-.506 12.236 2.876 13.094 10.724.475 4.329-.491 8.655-.486 12.984z" fill="#385ec0"/><path d="m4.176 82.365c-.361 1.477-2.299 2.187-4.176 2.167v-15.052c4.953-.581 5.036 9.368 4.176 12.885z" fill="#192a56"/></svg>