<svg enable-background="new 0 0 128 128" viewBox="0 0 128 128" xmlns="http://www.w3.org/2000/svg">
    <path d="m0 0h128v128h-128z" fill="#edeee9" />
    <g fill="#9fb2e3">
        <path
            d="m96 96c-2.168 1.107-4.506 2.047-6.378 5.24-.896 1.637-1.741 3.814-1.649 7.557.075 1.897.407 4.191 1.457 7.244 1.079 3.059 2.877 6.877 6.57 11.959h32c-2.509-2.662-10.652-5.284-17.217-8.638-6.708-3.319-11.145-7.107-13.299-10.237-2.232-3.171-2.693-5.709-2.677-7.771.042-2.077.632-3.715 1.193-5.354z" />
        <path
            d="m32 96c-2.168 1.107-4.506 2.047-6.378 5.24-.896 1.637-1.741 3.814-1.649 7.557.075 1.897.407 4.191 1.457 7.244 1.079 3.059 2.877 6.877 6.57 11.959h32c-2.509-2.662-10.652-5.284-17.217-8.638-6.708-3.319-11.145-7.107-13.299-10.237-2.232-3.171-2.693-5.709-2.677-7.771.042-2.077.632-3.715 1.193-5.354z" />
        <path
            d="m96 32c1.639.561 3.277 1.151 5.354 1.193 2.063.016 4.601-.445 7.771-2.676 3.13-2.153 6.919-6.591 10.238-13.299 3.353-6.566 5.975-14.709 8.637-17.218-10.667 0-21.333 0-32 0 3.693 5.082 5.491 8.9 6.571 11.959 1.05 3.053 1.382 5.347 1.457 7.244.091 3.743-.753 5.921-1.65 7.558-1.872 3.191-4.21 4.132-6.378 5.239z" />
        <path
            d="m32 32c1.639.561 3.278 1.151 5.354 1.193 2.063.016 4.601-.445 7.771-2.676 3.13-2.153 6.919-6.591 10.238-13.299 3.353-6.566 5.975-14.709 8.637-17.218-10.667 0-21.333 0-32 0 3.693 5.082 5.491 8.9 6.571 11.959 1.05 3.053 1.382 5.347 1.457 7.244.092 3.743-.753 5.921-1.65 7.558-1.872 3.191-4.21 4.132-6.378 5.239z" />
    </g>
    <path
        d="m102.378 26.76c.896-1.637 1.741-3.814 1.649-7.557-.075-1.897-.407-4.191-1.457-7.244-1.079-3.059-2.877-6.877-6.57-11.959-10.667 0-21.334 0-32 0 2.508 2.662 10.652 5.284 17.217 8.638 6.708 3.319 11.146 7.107 13.299 10.237 2.231 3.17 2.692 5.709 2.677 7.771-.042 2.077-.632 3.715-1.193 5.354 2.168-1.107 4.506-2.047 6.378-5.24z"
        fill="#dbe2f5" />
    <path
        d="m110.783 55.362c-6.708-3.319-11.145-7.107-13.299-10.237-2.232-3.17-2.693-5.709-2.677-7.771.042-2.077.632-3.715 1.193-5.354-2.168 1.107-4.506 2.047-6.378 5.24-.896 1.637-1.741 3.814-1.649 7.557.075 1.897.407 4.191 1.457 7.244 1.079 3.059 2.877 6.877 6.57 11.959s5.491 8.9 6.571 11.959c1.05 3.053 1.382 5.347 1.457 7.244.091 3.743-.753 5.921-1.65 7.558-1.872 3.191-4.21 4.132-6.378 5.239-1.639-.561-3.277-1.151-5.354-1.193-2.063-.016-4.601.445-7.771 2.677-3.131 2.153-6.919 6.591-10.237 13.299-3.354 6.565-5.976 14.708-8.638 17.217h32c-3.693-5.082-5.491-8.9-6.571-11.959-1.05-3.053-1.382-5.347-1.457-7.245-.092-3.743.753-5.921 1.65-7.558 1.872-3.191 4.21-4.131 6.378-5.238 1.639.561 3.277 1.151 5.354 1.193 2.063.016 4.601-.445 7.771-2.677 3.13-2.153 6.919-6.591 10.238-13.299 3.353-6.565 5.975-14.708 8.637-17.217-2.509-2.662-10.652-5.284-17.217-8.638z"
        fill="#dbe2f5" />
    <path
        d="m38.378 26.76c.896-1.637 1.741-3.814 1.649-7.557-.075-1.897-.407-4.191-1.457-7.244-1.079-3.059-2.877-6.877-6.57-11.959-10.667 0-21.334 0-32 0 2.508 2.662 10.652 5.284 17.217 8.638 6.708 3.319 11.146 7.107 13.299 10.237 2.231 3.17 2.692 5.709 2.677 7.771-.042 2.077-.632 3.715-1.193 5.354 2.168-1.107 4.506-2.047 6.378-5.24z"
        fill="#dbe2f5" />
    <path
        d="m46.783 55.362c-6.708-3.319-11.145-7.107-13.299-10.237-2.232-3.17-2.693-5.709-2.677-7.771.042-2.077.632-3.715 1.193-5.354-2.168 1.107-4.506 2.047-6.378 5.24-.896 1.637-1.741 3.814-1.649 7.557.075 1.897.407 4.191 1.457 7.244 1.079 3.059 2.877 6.877 6.57 11.959s5.491 8.9 6.571 11.959c1.05 3.053 1.382 5.347 1.457 7.244.092 3.743-.753 5.921-1.65 7.558-1.872 3.191-4.21 4.132-6.378 5.239-1.639-.561-3.278-1.151-5.354-1.193-2.063-.016-4.601.445-7.771 2.677-3.13 2.153-6.919 6.591-10.237 13.299-3.354 6.565-5.976 14.708-8.638 17.217h32c-3.693-5.082-5.491-8.9-6.571-11.959-1.05-3.053-1.382-5.347-1.457-7.245-.092-3.743.753-5.921 1.65-7.558 1.872-3.191 4.21-4.131 6.378-5.238 1.639.561 3.278 1.151 5.354 1.193 2.063.016 4.601-.445 7.771-2.677 3.13-2.153 6.919-6.591 10.238-13.299 3.353-6.565 5.975-14.708 8.637-17.217-2.509-2.662-10.652-5.284-17.217-8.638z"
        fill="#dbe2f5" />
    <path
        d="m119.362 81.217c-3.319 6.708-7.107 11.146-10.237 13.299-3.17 2.231-5.709 2.693-7.771 2.677-2.077-.042-3.715-.632-5.354-1.193 1.107 2.168 2.047 4.506 5.239 6.378 1.637.896 3.814 1.741 7.557 1.649 1.897-.075 4.191-.407 7.244-1.457 3.059-1.08 6.877-2.878 11.959-6.571 0-10.666 0-21.333 0-32-2.661 2.51-5.283 10.653-8.637 17.218z"
        fill="#fbc531" />
    <path
        d="m33.193 90.646c.016-2.063-.445-4.601-2.676-7.771-2.153-3.131-6.591-6.919-13.299-10.237-6.566-3.354-14.709-5.976-17.218-8.638v32c5.082-3.693 8.9-5.491 11.959-6.571 3.053-1.05 5.348-1.382 7.245-1.457 3.743-.092 5.921.753 7.558 1.65 3.191 1.872 4.131 4.21 5.238 6.378.561-1.639 1.151-3.277 1.193-5.354z"
        fill="#fbc531" />
    <path
        d="m119.362 17.217c-3.319 6.708-7.107 11.146-10.237 13.299-3.17 2.231-5.709 2.693-7.771 2.677-2.077-.042-3.715-.632-5.354-1.193 1.107 2.168 2.047 4.506 5.239 6.378 1.637.896 3.814 1.741 7.557 1.649 1.897-.075 4.191-.407 7.244-1.457 3.06-1.079 6.878-2.877 11.96-6.57 0-10.667 0-21.333 0-32-2.662 2.509-5.284 10.652-8.638 17.217z"
        fill="#fbc531" />
    <path
        d="m11.959 25.429c3.053-1.05 5.348-1.382 7.245-1.457 3.743-.092 5.921.753 7.558 1.65 3.191 1.872 4.131 4.21 5.238 6.378.561-1.639 1.151-3.278 1.193-5.354.016-2.063-.445-4.601-2.676-7.771-2.153-3.13-6.591-6.919-13.299-10.237-6.566-3.354-14.709-5.976-17.218-8.638v32c5.082-3.693 8.9-5.491 11.959-6.571z"
        fill="#fbc531" />
    <path
        d="m104.028 83.203c-.075-1.897-.407-4.191-1.457-7.244-1.08-3.059-2.878-6.877-6.571-11.959s-5.491-8.9-6.571-11.959c-1.05-3.053-1.382-5.347-1.457-7.245-.092-3.743.753-5.921 1.65-7.558 1.872-3.191 4.21-4.131 6.378-5.238-1.639-.561-3.277-1.151-5.354-1.193-2.063-.016-4.601.445-7.771 2.677-3.131 2.153-6.919 6.591-10.237 13.299-3.354 6.565-5.976 14.708-8.638 17.217 2.508 2.662 10.652 5.284 17.217 8.638 6.708 3.319 11.146 7.107 13.299 10.237 2.231 3.17 2.692 5.709 2.677 7.771-.042 2.077-.632 3.715-1.193 5.354 2.168-1.107 4.506-2.047 6.378-5.24.896-1.636 1.741-3.814 1.65-7.557z"
        fill="#9fb2e3" />
    <path
        d="m40.028 83.203c-.075-1.897-.407-4.191-1.457-7.244-1.08-3.059-2.878-6.877-6.571-11.959s-5.491-8.9-6.571-11.959c-1.05-3.053-1.382-5.347-1.457-7.245-.092-3.743.753-5.921 1.65-7.558 1.872-3.191 4.21-4.131 6.378-5.238-1.639-.561-3.278-1.151-5.354-1.193-2.063-.016-4.601.445-7.771 2.677-3.13 2.153-6.919 6.591-10.237 13.299-3.354 6.565-5.976 14.708-8.638 17.217 2.508 2.662 10.652 5.284 17.217 8.638 6.708 3.319 11.146 7.107 13.299 10.237 2.231 3.17 2.692 5.709 2.677 7.771-.042 2.077-.632 3.715-1.193 5.354 2.168-1.107 4.506-2.047 6.378-5.24.896-1.636 1.741-3.814 1.65-7.557z"
        fill="#9fb2e3" />
    <path
        d="m90.76 89.622c-1.637-.896-3.814-1.741-7.557-1.649-1.897.075-4.191.407-7.244 1.457-3.059 1.079-6.877 2.877-11.959 6.57 0 3.367 0 3.367 0 0-5.082 3.693-8.9 5.491-11.959 6.571-3.053 1.05-5.347 1.382-7.244 1.457-3.743.092-5.921-.753-7.558-1.65-3.191-1.872-4.132-4.21-5.239-6.378-.561 1.639-1.152 3.277-1.193 5.354-.016 2.063.445 4.601 2.677 7.771 2.153 3.13 6.591 6.918 13.299 10.237 6.565 3.354 14.708 5.976 17.217 8.638 0-5.838 0-5.838 0 0 2.662-2.509 5.284-10.652 8.638-17.217 3.319-6.708 7.107-11.146 10.237-13.299 3.171-2.231 5.709-2.693 7.771-2.677 2.077.042 3.715.632 5.354 1.193-1.107-2.168-2.047-4.506-5.24-6.378z"
        fill="#fbc531" />
    <path
        d="m46.783 55.362c6.565 3.354 14.708 5.976 17.217 8.638 0-5.477 0-5.477 0 0 2.662-2.509 5.284-10.652 8.638-17.217 3.319-6.708 7.107-11.146 10.237-13.299 3.171-2.231 5.709-2.693 7.771-2.677 2.077.042 3.715.632 5.354 1.193-1.107-2.168-2.047-4.506-5.24-6.378-1.637-.896-3.814-1.741-7.557-1.649-1.897.075-4.191.407-7.244 1.457-3.059 1.079-6.877 2.877-11.959 6.57 0 3.728 0 3.728 0 0-5.082 3.693-8.9 5.491-11.959 6.571-3.053 1.05-5.347 1.382-7.244 1.457-3.743.092-5.921-.752-7.558-1.65-3.191-1.872-4.132-4.21-5.239-6.378-.561 1.639-1.152 3.277-1.193 5.354-.016 2.063.445 4.601 2.677 7.771 2.153 3.13 6.591 6.918 13.299 10.237z"
        fill="#fbc531" />
</svg>