<svg enable-background="new 0 0 128 128" viewBox="0 0 128 128" xmlns="http://www.w3.org/2000/svg"><path d="m0 0h128v128h-128z" fill="#fbc531"/><path d="m109.882 18.118c-2.614-5.64-4.003-11.871-4.029-18.118h-24.423c.002.06.002.119.002.179-.002 4.56-1.814 8.847-5.106 12.072-3.286 3.218-7.663 4.989-12.325 4.991-4.664-.002-9.043-1.773-12.327-4.991-3.292-3.224-5.106-7.51-5.106-12.07 0-.06 0-.12.002-.181h-24.425c-.024 6.248-1.412 12.477-4.028 18.118-5.641 2.616-11.869 4.003-18.117 4.028v24.786c4.493.045 8.707 1.817 11.889 4.997 3.218 3.217 4.991 7.505 4.991 12.071s-1.773 8.854-4.989 12.07c-3.184 3.182-7.398 4.953-11.891 4.999v24.786c6.248.024 12.476 1.412 18.118 4.028 2.616 5.641 4.003 11.87 4.028 18.118h24.785c.046-4.491 1.817-8.708 4.999-11.889 3.217-3.218 7.504-4.989 12.07-4.991 4.566.002 8.854 1.773 12.071 4.991 3.182 3.182 4.952 7.398 4.999 11.889h24.784c.024-6.246 1.415-12.477 4.029-18.118 5.64-2.614 11.87-4.003 18.118-4.028v-24.786c-4.493-.046-8.709-1.817-11.891-4.997-3.218-3.218-4.989-7.506-4.989-12.072s1.771-8.854 4.989-12.07c3.182-3.182 7.398-4.953 11.891-4.999v-24.785c-6.249-.025-12.479-1.412-18.119-4.028zm-12.665 12.664 2.248 1.212c2.951 1.592 6.009 2.928 9.158 4.002-1.628 1.14-3.164 2.429-4.59 3.857-1.427 1.427-2.715 2.964-3.855 4.595-1.074-3.151-2.409-6.211-4.003-9.163l-1.212-2.247-2.248-1.213c-2.951-1.593-6.009-2.928-9.158-4 1.628-1.142 3.164-2.43 4.592-3.857 1.425-1.427 2.713-2.965 3.854-4.597 1.074 3.151 2.409 6.211 4.003 9.165zm-10.889 33.218c0 6.308-1.391 12.605-4.031 18.299-5.693 2.64-11.989 4.029-18.298 4.029-6.308.002-12.603-1.389-18.298-4.029-2.64-5.695-4.029-11.99-4.029-18.299s1.389-12.604 4.029-18.299c5.695-2.64 11.99-4.029 18.298-4.029h.011c6.305 0 12.597 1.391 18.287 4.029 2.641 5.694 4.031 11.991 4.031 18.299zm-46.476-40.032c1.427 1.427 2.964 2.715 4.59 3.857-3.149 1.072-6.206 2.407-9.158 4l-2.246 1.213-1.213 2.247c-1.593 2.952-2.928 6.014-4.002 9.163-1.14-1.632-2.429-3.169-3.855-4.595-1.427-1.427-2.964-2.717-4.59-3.857 3.149-1.074 6.207-2.409 9.158-4.002l2.246-1.212 1.213-2.246c1.593-2.954 2.93-6.014 4.002-9.165 1.14 1.631 2.428 3.17 3.855 4.597zm-9.071 73.25-2.246-1.212c-2.951-1.592-6.009-2.928-9.158-4.002 1.627-1.14 3.164-2.429 4.59-3.857 1.427-1.427 2.715-2.964 3.855-4.595 1.074 3.149 2.409 6.211 4.002 9.163l1.213 2.246 2.246 1.214c2.951 1.593 6.011 2.928 9.158 4-1.627 1.142-3.164 2.43-4.59 3.857-1.427 1.427-2.715 2.965-3.855 4.597-1.072-3.151-2.409-6.211-4.002-9.165zm57.367 6.815c-1.428-1.427-2.964-2.715-4.592-3.857 3.149-1.072 6.207-2.407 9.16-4l2.246-1.214 1.212-2.246c1.594-2.952 2.93-6.012 4.003-9.163 1.14 1.632 2.429 3.169 3.854 4.595 1.428 1.427 2.964 2.717 4.592 3.857-3.149 1.074-6.207 2.408-9.158 4.002l-2.248 1.212-1.212 2.246c-1.594 2.954-2.93 6.014-4.003 9.165-1.14-1.632-2.427-3.171-3.854-4.597z" fill="#fff"/><path d="m18.217 45.602c-5.035-5.033-11.621-7.575-18.217-7.617v.813c6.391.044 12.764 2.503 17.641 7.38 4.922 4.922 7.382 11.371 7.382 17.822s-2.46 12.9-7.382 17.822c-4.877 4.877-11.25 7.336-17.641 7.38v.813c6.596-.042 13.182-2.585 18.217-7.618 5.078-5.08 7.619-11.741 7.619-18.398s-2.541-13.317-7.619-18.397z"/><path d="m15.455 48.363c-4.132-4.132-9.619-6.431-15.455-6.474v.813c5.625.046 10.897 2.255 14.881 6.237 4.153 4.153 6.228 9.606 6.228 15.061s-2.076 10.909-6.228 15.061c-3.984 3.983-9.256 6.192-14.881 6.237v.813c5.836-.044 11.323-2.342 15.455-6.474 4.311-4.311 6.468-9.977 6.468-15.637s-2.158-11.327-6.468-15.637z"/><path d="m128 38.798v-.813c-6.598.042-13.182 2.585-18.217 7.618-5.08 5.08-7.621 11.741-7.621 18.398s2.541 13.318 7.621 18.398c5.033 5.033 11.619 7.576 18.217 7.618v-.813c-6.391-.044-12.764-2.503-17.641-7.38-4.922-4.922-7.382-11.37-7.383-17.822.002-6.451 2.461-12.9 7.383-17.822 4.877-4.879 11.25-7.338 17.641-7.382z"/><path d="m128 42.702v-.813c-5.838.044-11.325 2.342-15.457 6.474-4.311 4.311-6.468 9.976-6.466 15.637-.002 5.661 2.155 11.327 6.466 15.637 4.132 4.132 9.618 6.43 15.457 6.474v-.813c-5.627-.046-10.899-2.255-14.881-6.237-4.153-4.153-6.229-9.605-6.229-15.061s2.076-10.909 6.229-15.061c3.982-3.982 9.254-6.191 14.881-6.237z"/><path d="m89.203 0c-.046 6.391-2.505 12.764-7.382 17.641-4.922 4.922-11.37 7.382-17.822 7.382-6.451 0-12.899-2.46-17.822-7.382-4.876-4.877-7.336-11.25-7.38-17.641h-.813c.044 6.596 2.585 13.183 7.619 18.215 5.078 5.08 11.74 7.621 18.396 7.621 6.658 0 13.319-2.541 18.397-7.621 5.035-5.032 7.576-11.619 7.62-18.215z"/><path d="m85.287 0c-.044 5.396-2.119 10.774-6.227 14.881-4.024 4.024-9.368 6.237-15.061 6.238-5.692-.002-11.035-2.214-15.061-6.238-4.107-4.107-6.181-9.485-6.227-14.881h-.813c.044 5.601 2.201 11.19 6.466 15.455 4.174 4.176 9.732 6.477 15.635 6.477 5.905 0 11.463-2.302 15.637-6.477 4.265-4.265 6.422-9.854 6.465-15.455z"/><path d="m82.397 109.785c-5.08-5.08-11.74-7.621-18.397-7.621-6.656 0-13.317 2.541-18.396 7.621-5.034 5.033-7.575 11.619-7.619 18.215h.813c.044-6.391 2.503-12.765 7.38-17.641 4.922-4.922 11.37-7.382 17.822-7.382 6.451 0 12.899 2.46 17.822 7.382 4.877 4.877 7.336 11.25 7.382 17.641h.813c-.045-6.596-2.586-13.183-7.62-18.215z"/><path d="m79.636 112.545c-4.174-4.176-9.732-6.477-15.637-6.477-5.903 0-11.461 2.302-15.635 6.477-4.265 4.265-6.422 9.854-6.466 15.455h.813c.046-5.396 2.12-10.772 6.227-14.881 4.026-4.024 9.369-6.237 15.061-6.238 5.693.002 11.037 2.214 15.061 6.238 4.107 4.109 6.183 9.485 6.227 14.881h.813c-.042-5.601-2.199-11.19-6.464-15.455z"/><path d="m89.017 39.148-.059-.107-.106-.059c-7.396-3.99-15.861-6.258-24.854-6.256-8.992-.002-17.457 2.266-24.852 6.256l-.106.058-.057.107c-3.992 7.395-6.258 15.86-6.258 24.852s2.266 17.457 6.258 24.852l.057.107.107.059c7.395 3.99 15.86 6.258 24.852 6.256 8.992.002 17.457-2.266 24.854-6.256l.106-.059.059-.107c3.992-7.395 6.258-15.86 6.258-24.852s-2.267-17.457-6.259-24.851zm-.659 49.211c-7.255 3.893-15.548 6.102-24.359 6.102s-17.103-2.209-24.357-6.102c-3.895-7.255-6.104-15.547-6.104-24.359s2.209-17.104 6.103-24.36c7.255-3.893 15.546-6.102 24.357-6.102s17.104 2.209 24.359 6.102c3.893 7.257 6.103 15.548 6.103 24.36s-2.209 17.104-6.102 24.359z"/><path d="m86.13 42.048-.06-.119-.119-.06c-6.757-3.432-14.319-5.24-21.952-5.24-7.632 0-15.193 1.807-21.952 5.24l-.117.06-.06.119c-3.432 6.757-5.241 14.32-5.241 21.952s1.809 15.195 5.241 21.952l.06.119.117.06c6.759 3.432 14.319 5.24 21.952 5.24 7.632 0 15.195-1.807 21.952-5.24l.119-.06.06-.119c3.432-6.757 5.241-14.32 5.241-21.952s-1.809-15.195-5.241-21.952zm-.665 43.416c-6.612 3.336-14.005 5.095-21.465 5.093-7.458.002-14.851-1.757-21.464-5.093-3.335-6.611-5.094-14.004-5.094-21.464 0-7.458 1.758-14.853 5.093-21.464 6.612-3.336 14.006-5.095 21.464-5.093 7.46-.002 14.853 1.757 21.465 5.093 3.335 6.611 5.093 14.006 5.093 21.464.001 7.46-1.758 14.853-5.092 21.464z"/><path d="m103.821 24.177c-3.866-7.204-6.072-15.434-6.101-24.177h-.815c.031 8.924 2.292 17.326 6.258 24.672l.059.107.106.057c7.348 3.966 15.748 6.227 24.673 6.258v-.815c-8.746-.029-16.975-2.234-24.18-6.102z"/><path d="m106.715 21.283c-3.307-6.559-5.064-13.887-5.091-21.283h-.813c.028 7.569 1.835 15.066 5.239 21.771l.06.117.119.06c6.703 3.405 14.201 5.212 21.771 5.24v-.813c-7.398-.028-14.726-1.785-21.285-5.092z"/><path d="m30.279 0c-.029 8.743-2.233 16.973-6.1 24.177-7.206 3.868-15.434 6.073-24.179 6.102v.815c8.925-.031 17.326-2.292 24.671-6.258l.107-.057.059-.107c3.965-7.346 6.226-15.748 6.257-24.672z"/><path d="m26.375 0c-.028 7.397-1.784 14.725-5.091 21.283-6.558 3.307-13.888 5.064-21.284 5.092v.813c7.57-.028 15.068-1.835 21.771-5.24l.117-.06.06-.117c3.407-6.705 5.212-14.202 5.24-21.771z"/><path d="m24.837 103.328-.059-.107-.107-.057c-7.345-3.966-15.746-6.227-24.671-6.258v.815c8.745.029 16.973 2.233 24.179 6.102 3.867 7.205 6.071 15.434 6.1 24.177h.815c-.031-8.924-2.292-17.326-6.257-24.672z"/><path d="m21.948 106.23-.059-.119-.119-.06c-6.703-3.405-14.201-5.212-21.771-5.24v.813c7.396.028 14.726 1.784 21.283 5.091 3.307 6.559 5.064 13.887 5.091 21.283h.813c-.026-7.567-1.831-15.064-5.238-21.768z"/><path d="m126.176 34.961c.608.023 1.215.036 1.824.037v-.917c-.615.003-1.227.024-1.833.067-8.496-.311-16.862-2.572-24.307-6.591l-.921-.496-.496-.921c-4.041-7.488-6.307-15.906-6.596-24.452.035-.562.055-1.125.058-1.688h-.904c.002.56.013 1.119.033 1.677-.433 6.824-3.249 13.521-8.451 18.725-5.026 5.023-11.557 7.982-18.58 8.455-.667-.023-1.336-.036-2.004-.036-.667 0-1.335.013-2.002.036-7.022-.473-13.553-3.432-18.58-8.455-5.204-5.204-8.018-11.901-8.451-18.725.02-.558.03-1.117.032-1.677h-.903c.003.563.023 1.126.057 1.687-.288 8.547-2.554 16.965-6.594 24.452l-.498.921-.919.496c-7.447 4.019-15.811 6.281-24.307 6.591-.607-.042-1.219-.063-1.834-.066v.917c.608-.002 1.215-.015 1.822-.037 7.022.475 13.555 3.432 18.58 8.457 5.204 5.204 8.018 11.899 8.45 18.723-.019.62-.031 1.239-.031 1.859s.011 1.24.031 1.859c-.433 6.824-3.247 13.519-8.45 18.723-5.025 5.025-11.557 7.982-18.58 8.457-.607-.022-1.214-.035-1.822-.037v.918c.615-.003 1.227-.024 1.833-.065 8.496.309 16.86 2.57 24.307 6.59l.919.496.498.921c2.02 3.745 3.597 7.72 4.704 11.829 1.108 4.109 1.747 8.35 1.89 12.623-.034.561-.054 1.124-.057 1.687h.903c-.002-.56-.011-1.119-.031-1.677.433-6.824 3.247-13.521 8.451-18.725 5.026-5.023 11.557-7.982 18.58-8.455.667.023 1.336.036 2.002.036.669 0 1.337-.013 2.004-.036 7.022.473 13.553 3.432 18.58 8.455 5.202 5.204 8.018 11.901 8.451 18.725-.02.558-.031 1.118-.033 1.677h.904c-.003-.563-.023-1.126-.059-1.687.289-8.547 2.555-16.965 6.596-24.452l.496-.921.921-.496c3.722-2.009 7.675-3.58 11.759-4.687 4.085-1.106 8.301-1.749 12.548-1.903.607.041 1.218.062 1.833.065v-.918c-.608.002-1.215.015-1.824.037-7.022-.475-13.553-3.432-18.578-8.457-5.204-5.204-8.019-11.899-8.452-18.723.021-.62.033-1.24.033-1.859 0-.62-.011-1.239-.033-1.859.433-6.824 3.248-13.519 8.452-18.723 5.026-5.025 11.557-7.982 18.579-8.457zm-105.199 7.881c-4.21-4.21-9.457-7.011-15.164-8.166 7.248-.776 14.313-2.951 20.712-6.404l1.134-.612.613-1.134c3.463-6.419 5.64-13.505 6.411-20.776 1.121 5.583 3.839 10.907 8.159 15.226 4.208 4.21 9.456 7.011 15.162 8.166-7.249.776-14.313 2.951-20.712 6.404l-1.134.613-.612 1.134c-3.465 6.417-5.641 13.505-6.412 20.776-1.12-5.583-3.838-10.907-8.157-15.227zm21.866 64.182c-4.32 4.319-7.039 9.643-8.159 15.226-.771-7.271-2.948-14.357-6.411-20.776l-.613-1.134-1.134-.612c-3.2-1.726-6.565-3.135-10.038-4.207-3.471-1.072-7.05-1.81-10.674-2.198 5.706-1.155 10.954-3.956 15.164-8.166 4.319-4.321 7.037-9.645 8.158-15.227.771 7.271 2.948 14.359 6.412 20.776l.612 1.134 1.134.613c6.399 3.454 13.464 5.628 20.712 6.404-5.707 1.156-10.955 3.957-15.163 8.167zm21.156-8.765c-.675 0-1.345.024-2.014.068-8.496-.309-16.86-2.572-24.306-6.59l-.921-.498-.496-.919c-4.042-7.489-6.308-15.907-6.596-24.452.039-.623.06-1.246.06-1.869s-.021-1.246-.06-1.867c.288-8.547 2.554-16.965 6.596-24.454l.496-.919.921-.498c7.445-4.018 15.809-6.281 24.306-6.59.668.044 1.339.068 2.014.068s1.347-.024 2.014-.068c8.496.309 16.862 2.572 24.307 6.59l.921.498.496.919c4.042 7.489 6.307 15.907 6.596 24.454-.039.621-.06 1.244-.06 1.867s.021 1.246.06 1.869c-.29 8.545-2.554 16.963-6.596 24.452l-.496.919-.921.498c-7.445 4.018-15.811 6.281-24.307 6.59-.667-.043-1.339-.068-2.014-.068zm43.024-13.101c4.21 4.21 9.457 7.011 15.164 8.166-7.25.776-14.313 2.951-20.712 6.404l-1.135.612-.612 1.134c-1.732 3.209-3.141 6.585-4.215 10.069-1.074 3.481-1.811 7.071-2.196 10.707-1.121-5.583-3.84-10.907-8.159-15.226-4.208-4.21-9.456-7.011-15.162-8.166 7.248-.776 14.311-2.951 20.712-6.404l1.134-.613.612-1.134c3.463-6.417 5.641-13.505 6.411-20.776 1.119 5.583 3.839 10.908 8.158 15.227zm-8.16-27.089c-.769-7.271-2.947-14.359-6.411-20.776l-.612-1.134-1.134-.613c-6.401-3.453-13.464-5.628-20.712-6.404 5.706-1.155 10.954-3.956 15.162-8.166 4.319-4.319 7.039-9.643 8.159-15.226.771 7.271 2.948 14.357 6.411 20.776l.612 1.134 1.135.612c6.399 3.453 13.462 5.628 20.712 6.404-5.706 1.155-10.954 3.956-15.164 8.166-4.317 4.32-7.037 9.644-8.158 15.227zm27.313-23.108c.608.023 1.215.036 1.824.037v-.917c-.615.003-1.227.024-1.833.067-8.496-.311-16.862-2.572-24.307-6.591l-.921-.496-.496-.921c-4.041-7.488-6.307-15.906-6.596-24.452.035-.562.055-1.125.058-1.688h-.904c.002.56.013 1.119.033 1.677-.433 6.824-3.249 13.521-8.451 18.725-5.026 5.023-11.557 7.982-18.58 8.455-.667-.023-1.336-.036-2.004-.036-.667 0-1.335.013-2.002.036-7.022-.473-13.553-3.432-18.58-8.455-5.204-5.204-8.018-11.901-8.451-18.725.02-.558.03-1.117.032-1.677h-.903c.003.563.023 1.126.057 1.687-.288 8.547-2.554 16.965-6.594 24.452l-.498.921-.919.496c-7.447 4.019-15.811 6.281-24.307 6.591-.607-.042-1.219-.063-1.834-.066v.917c.608-.002 1.215-.015 1.822-.037 7.022.475 13.555 3.432 18.58 8.457 5.204 5.204 8.018 11.899 8.45 18.723-.019.62-.031 1.239-.031 1.859s.011 1.24.031 1.859c-.433 6.824-3.247 13.519-8.45 18.723-5.025 5.025-11.557 7.982-18.58 8.457-.607-.022-1.214-.035-1.822-.037v.918c.615-.003 1.227-.024 1.833-.065 8.496.309 16.86 2.57 24.307 6.59l.919.496.498.921c2.02 3.745 3.597 7.72 4.704 11.829 1.108 4.109 1.747 8.35 1.89 12.623-.034.561-.054 1.124-.057 1.687h.903c-.002-.56-.011-1.119-.031-1.677.433-6.824 3.247-13.521 8.451-18.725 5.026-5.023 11.557-7.982 18.58-8.455.667.023 1.336.036 2.002.036.669 0 1.337-.013 2.004-.036 7.022.473 13.553 3.432 18.58 8.455 5.202 5.204 8.018 11.901 8.451 18.725-.02.558-.031 1.118-.033 1.677h.904c-.003-.563-.023-1.126-.059-1.687.289-8.547 2.555-16.965 6.596-24.452l.496-.921.921-.496c3.722-2.009 7.675-3.58 11.759-4.687 4.085-1.106 8.301-1.749 12.548-1.903.607.041 1.218.062 1.833.065v-.918c-.608.002-1.215.015-1.824.037-7.022-.475-13.553-3.432-18.578-8.457-5.204-5.204-8.019-11.899-8.452-18.723.021-.62.033-1.24.033-1.859 0-.62-.011-1.239-.033-1.859.433-6.824 3.248-13.519 8.452-18.723 5.026-5.025 11.557-7.982 18.579-8.457zm-105.199 7.881c-4.21-4.21-9.457-7.011-15.164-8.166 7.248-.776 14.313-2.951 20.712-6.404l1.134-.612.613-1.134c3.463-6.419 5.64-13.505 6.411-20.776 1.121 5.583 3.839 10.907 8.159 15.226 4.208 4.21 9.456 7.011 15.162 8.166-7.249.776-14.313 2.951-20.712 6.404l-1.134.613-.612 1.134c-3.465 6.417-5.641 13.505-6.412 20.776-1.12-5.583-3.838-10.907-8.157-15.227zm21.866 64.182c-4.32 4.319-7.039 9.643-8.159 15.226-.771-7.271-2.948-14.357-6.411-20.776l-.613-1.134-1.134-.612c-3.2-1.726-6.565-3.135-10.038-4.207-3.471-1.072-7.05-1.81-10.674-2.198 5.706-1.155 10.954-3.956 15.164-8.166 4.319-4.321 7.037-9.645 8.158-15.227.771 7.271 2.948 14.359 6.412 20.776l.612 1.134 1.134.613c6.399 3.454 13.464 5.628 20.712 6.404-5.707 1.156-10.955 3.957-15.163 8.167zm21.156-8.765c-.675 0-1.345.024-2.014.068-8.496-.309-16.86-2.572-24.306-6.59l-.921-.498-.496-.919c-4.042-7.489-6.308-15.907-6.596-24.452.039-.623.06-1.246.06-1.869s-.021-1.246-.06-1.867c.288-8.547 2.554-16.965 6.596-24.454l.496-.919.921-.498c7.445-4.018 15.809-6.281 24.306-6.59.668.044 1.339.068 2.014.068s1.347-.024 2.014-.068c8.496.309 16.862 2.572 24.307 6.59l.921.498.496.919c4.042 7.489 6.307 15.907 6.596 24.454-.039.621-.06 1.244-.06 1.867s.021 1.246.06 1.869c-.29 8.545-2.554 16.963-6.596 24.452l-.496.919-.921.498c-7.445 4.018-15.811 6.281-24.307 6.59-.667-.043-1.339-.068-2.014-.068zm43.024-13.101c4.21 4.21 9.457 7.011 15.164 8.166-7.25.776-14.313 2.951-20.712 6.404l-1.135.612-.612 1.134c-1.732 3.209-3.141 6.585-4.215 10.069-1.074 3.481-1.811 7.071-2.196 10.707-1.121-5.583-3.84-10.907-8.159-15.226-4.208-4.21-9.456-7.011-15.162-8.166 7.248-.776 14.311-2.951 20.712-6.404l1.134-.613.612-1.134c3.463-6.417 5.641-13.505 6.411-20.776 1.119 5.583 3.839 10.908 8.158 15.227zm-8.16-27.089c-.769-7.271-2.947-14.359-6.411-20.776l-.612-1.134-1.134-.613c-6.401-3.453-13.464-5.628-20.712-6.404 5.706-1.155 10.954-3.956 15.162-8.166 4.319-4.319 7.039-9.643 8.159-15.226.771 7.271 2.948 14.357 6.411 20.776l.612 1.134 1.135.612c6.399 3.453 13.462 5.628 20.712 6.404-5.706 1.155-10.954 3.956-15.164 8.166-4.317 4.32-7.037 9.644-8.158 15.227z"/><path d="m103.327 103.164-.106.057-.059.107c-3.966 7.346-6.227 15.748-6.258 24.672h.815c.029-8.743 2.235-16.973 6.102-24.177 7.204-3.868 15.434-6.072 24.179-6.102v-.815c-8.926.031-17.326 2.292-24.673 6.258z"/><path d="m106.229 106.051-.119.06-.06.119c-3.405 6.703-5.212 14.201-5.239 21.77h.813c.028-7.396 1.784-14.725 5.091-21.283 6.559-3.307 13.887-5.064 21.285-5.091v-.813c-7.571.026-15.068 1.834-21.771 5.238z"/></svg>