<svg enable-background="new 0 0 128 156" viewBox="0 0 128 156" xmlns="http://www.w3.org/2000/svg"><path d="m0 0h128v156h-128z" fill="#fbc531"/><g fill="#fff"><path d="m28.288 141.843 10.606 10.618-3.535 3.539h-7.071l3.535-3.539-3.535-3.539-7.072 7.078h-7.074z"/><path d="m28.288 127.688 24.751 24.773-3.535 3.539h-7.074l3.536-3.539-17.678-17.696-21.217 21.235h-7.071z"/><path d="m113.855 148.214-7.779 7.786h-12.73l-4.243-4.247 7.074-7.077 3.536 3.538-3.536 3.539 3.536 3.539 7.071-7.078-10.607-10.616-14.145 14.155 4.243 4.247h-7.071l-4.243-4.247 21.216-21.235z"/><path d="m128 148.214-7.779 7.786h-7.071l7.779-7.786-17.681-17.696-7.071-7.077-28.641 28.666 3.889 3.893h-7.071l-.354-.354-.354.354h-7.071l3.889-3.893-32.176-32.205 31.823-31.852 28.287 28.313-24.752 24.774-21.216-21.235 17.681-17.696 14.142 14.157-10.607 10.616-7.071-7.077 3.536-3.539 3.535 3.539 3.536-3.539-7.071-7.078-10.607 10.617 14.142 14.157 17.681-17.696-21.216-21.235-17.681 17.696-7.071 7.078 28.641 28.666 32.177-32.205z"/><path d="m31.823 3.539-3.535-3.539h7.071z"/><path d="m31.823 17.696-17.681-17.696h7.074l10.607 10.616 10.607-10.616h7.074z"/><path d="m31.823 31.851-31.823-31.851h7.071l17.681 17.696 7.071 7.078 24.752-24.774h7.071z"/><path d="m71.425 0 28.288 28.313-31.824 31.851-28.287-28.313 24.752-24.773 21.214 21.235-17.679 17.693-14.144-14.155 10.609-10.616 7.071 7.078-3.536 3.538-3.535-3.538-3.536 3.538 7.071 7.078 10.607-10.616-14.142-14.158-17.681 17.696 21.216 21.235 17.679-17.696 7.073-7.077-24.752-24.774-3.535-3.539z"/><path d="m99.713 6.372-6.367-6.372h12.732z"/><path d="m120.221 0-20.508 20.527-20.509-20.527h7.071l13.438 13.449 13.437-13.449z"/><path d="m.354 106.311-.354.354v-7.077l.354-.354 7.071 7.077-3.536 3.539z"/><path d="m10.253 38.362-10.253 10.264v-7.077l3.182-3.187-3.182-3.185v-7.077z"/><path d="m3.889 124.007-3.889-3.892v-7.08l3.889 3.895 10.607-10.619-14.142-14.155-.354.354v-7.077l.354-.354 21.214 21.232z"/><path d="m24.398 38.362-24.398 24.419v-7.077l17.327-17.342-17.327-17.34v-7.08z"/><path d="m35.713 70.215-3.536 3.539 3.536 3.539 7.071-7.078-10.607-10.618-14.145 14.157 17.681 17.694 21.216-21.233-24.752-24.773-28.641 28.664 3.889 3.893 28.288 28.312-31.824 31.852-3.889-3.893v-7.078l3.889 3.893 17.679-17.694 7.073-7.08-24.752-24.771-3.889-3.893v-7.08l32.177-32.205 31.823 31.853-28.287 28.311-24.752-24.772 21.216-21.235 17.678 17.696-14.142 14.155-10.607-10.616 7.071-7.08z"/><path d="m127.646 41.903.354-.354v7.077l-.354.354-7.071-7.077 3.535-3.541z"/><path d="m124.11 24.207 3.89 3.893v7.077l-3.89-3.893-10.606 10.619 14.142 14.155.354-.354v7.077l-.354.355-21.216-21.233z"/><path d="m128 13.942v7.08l-3.89-3.893-17.68 17.694-7.071 7.08 28.641 28.664v7.08l-3.89 3.893-28.287 28.31-31.823-31.851 28.287-28.313 24.752 24.774-21.216 21.235-17.68-17.696 14.144-14.155 10.607 10.616-7.071 7.08-3.536-3.541 3.536-3.539-3.536-3.539-7.071 7.078 10.607 10.619 14.143-14.158-17.679-17.694-21.216 21.233 24.752 24.774 28.641-28.667-32.177-32.203 31.823-31.854z"/><path d="m117.744 109.85 10.256-10.262v7.077l-3.184 3.185 3.184 3.187v7.078z"/><path d="m103.602 109.85 24.398-24.417v7.077l-17.327 17.34 17.327 17.342v7.078z"/></g></svg>