<svg enable-background="new 0 0 128 128" viewBox="0 0 128 128" xmlns="http://www.w3.org/2000/svg"><path d="m0 0h128v128h-128z" fill="#fbc531"/><path d="m1.85 0v.007l-.25.496-.211.421-.211.428-.589 1.175-.589-.391v-2.136z" fill="#192a56"/><path d="m2.189.68-.583.391h-.006l-.422.281-1.178.784v-2.136h1.85v.007z" fill="#192a56"/><path d="m2.189 43.342-.589.391-1.171.784-.429.28v-4.264l.589-.391.589 1.175.422.85z" fill="#192a56"/><path d="m0 0v2.136 38.398 2.135" fill="none"/><path d="m0 0h1.6v44.52h-1.6z" fill="#192a56"/><path d="m32 21.33-1.6-1.07h-.01l-4.79-3.19v-.01l-1.6-1.06-1.6-1.07-4.79-3.19h-.01v-.01l-1.6-1.06-1.6-1.07-4.8-3.2-1.59-1.06h-.01l-1.6-1.07v-.01l-4.79-3.19h-.01v-.01l-.21-.14-1.39-.92" fill="none"/><path d="m34.19 20.65-.59 1.19-.42.85-.59 1.17-.59-.39-1.17-.78h-.01l-.42-.28-4.8-3.2-1.6-1.08-1.18-.78-.42-.28-4.8-3.2-1.6-1.06v-.01h-.01l-1.16-.78-.43-.28-4.8-3.2-1.6-1.07-.01-.01-1.16-.77-.43-.28-4.8-3.2-1.01-.68-.59-.39v-2.14h3.2l4.79 3.2.44.29 1.17.78 1.59 1.07 4.81 3.2.44.28 1.16.78 1.6 1.06 4.8 3.2.43.29 1.17.78 1.6 1.07 4.8 3.2.44.29 1.16.77h.01z" fill="#192a56"/><path d="m65.85 0v.007l-.25.496-.211.421-.211.428-.589 1.175-.589-.391-1.178-.784-.422-.281v-.007l-.589-.384-1.005-.68z" fill="#192a56"/><path d="m32 21.335 32-21.333" fill="none"/><path d="m66.19.68-.58.39h-.01l-.42.28-1.18.79-.59.39-1.01.68-4.8 3.2-1.6 1.07-1.6 1.06-4.8 3.2-1.6 1.07-1.6 1.06-4.8 3.2-1.6 1.06-1.6 1.08-4.8 3.2-.42.28-1.18.78-.59.39-.58-1.17h-.01l-.42-.85-.59-1.19.58-.39h.01l1.16-.77.44-.29 6.4-4.27 1.17-.78 6.83-4.55 1.16-.78 6.84-4.55 1.17-.78 5.23-3.49h5.05v.01z" fill="#192a56"/><path d="m3.194 0-1.005.68-.589.384v.007l-.422.281-1.178.784v-2.136z" fill="#192a56"/><path d="m16 0-6.4 4.271-1.6 1.064" fill="none"/><path d="m19.2 0-8.01 5.34-1.59 1.06-1.6 1.06h-.01l-.58.4-.58-1.17-.43-.86-.59-1.17.59-.4 1.16-.77.43-.29 4.81-3.2z" fill="#192a56"/><path d="m24 15.999 1.6-1.064 22.406-14.935" fill="none"/><path d="m51.21 0-24.01 16-1.6 1.07-1.6 1.06-.59.4-.59-1.18-.42-.85-.59-1.17.59-.4 1.17-.78.43-.29 20.81-13.86z" fill="#192a56"/><path d="m32.006 0-14.406 9.599v.008l-1.6 1.064" fill="none"/><path d="m35.2 0-16 10.66-1.59 1.08h-.01l-1.6 1.06h-.01l-.58.39-.58-1.17-.43-.85-.59-1.18.59-.39 1.16-.78.44-.28 12.8-8.54z" fill="#192a56"/><path d="m32 64 32-21.333" fill="none"/><path d="m66.19 43.34-.59.39v.01l-1.18.78-.42.28-6.4 4.27-1.18.78-6.82 4.55-1.18.78-6.82 4.55-1.17.78-5.24 3.49-1 .67-.59.39v.01h-.01l-.4.26v.01l-.01.01-.75.5h-.01l-.42.28h-.01l-.58.39-.33-.67-.25-.49-.01-.01-.21-.43-.21-.42-.25-.5-.34-.68.58-.39h.01l.42-.28.01-.01.73-.48h.01v-.01h.01l.41-.28h.01v-.01l1.6-1.07 4.8-3.2 1.6-1.06 1.6-1.07 4.8-3.2 1.6-1.06 1.6-1.07 4.8-3.2 1.6-1.06 1.6-1.07 4.8-3.2.42-.28 1.18-.79.59-.39.59 1.18.42.84z" fill="#192a56"/><path d="m32 64-32-21.333" fill="none"/><path d="m34.19 63.32v.01l-.34.67-.25.5-.21.43-.2.4v.01l-.01.01-.25.5-.34.67-.59-.39h-.01l-.41-.28h-.01l-.74-.49-.01-.01-.41-.28h-.02l-.58-.39-1.01-.68-4.8-3.2-.42-.28-.01-.01-1.17-.78-1.6-1.06-4.79-3.2-.44-.29-1.17-.78-1.59-1.07-4.81-3.2-.42-.28-.02-.01-1.16-.77v-.01l-1.6-1.06-4.8-3.2v-4.27l1.18.79.42.28 4.8 3.2 1.6 1.07 1.18.78.42.28 4.8 3.2 1.6 1.07h.01l1.16.78.43.29 4.8 3.2 1.6 1.06 1.18.79.42.28 4.8 3.2 1.01.68.58.39h.01l.42.28.02.01.74.49.01.01.41.27h.01z" fill="#192a56"/><path d="m64 42.667v-42.665" fill="none"/><path d="m62.4 0h3.2v44.52h-3.2z" fill="#192a56"/><path d="m32 64v-42.665" fill="none"/><path d="m30.4 19.49h3.2v46.36h-3.2z" fill="#192a56"/><path d="m40 58.667v-42.666" fill="none"/><path d="m41.6 14.15v46.36h-3.2v-45.58l1.17-.78z" fill="#192a56"/><path d="m56 48v-42.665" fill="none"/><path d="m57.6 3.49v46.36h-3.2v-45.58l1.17-.78z" fill="#192a56"/><path d="m48 53.334v-42.666" fill="none"/><path d="m49.6 8.82v46.36h-3.2v-45.58l1.16-.78z" fill="#192a56"/><path d="m0 0v2.136 38.398 2.135" fill="none"/><path d="m0 0h1.6v44.52h-1.6z" fill="#192a56"/><path d="m32 64v-42.665" fill="none"/><path d="m30.4 19.49h3.2v46.36h-3.2z" fill="#192a56"/><path d="m8 48v-42.665" fill="none"/><path d="m6.4 3.49h3.2v46.36h-3.2z" fill="#192a56"/><path d="m16 53.334v-42.666" fill="none"/><path d="m14.4 8.82h3.2v46.36h-3.2z" fill="#192a56"/><path d="m96 21.335-32-21.333" fill="none"/><path d="m98.19 20.65-.59 1.19-.42.85-.59 1.17-.59-.39-1.18-.78-.42-.28-4.8-3.2-1.6-1.08-1.18-.78-.42-.28-4.8-3.2-1.6-1.06v-.01h-.01l-1.16-.78-.43-.28-4.8-3.2-1.6-1.07-.01-.01-1.16-.77-.43-.28-4.8-3.2-1.01-.68-.59-.39-1.18-.79-.42-.28h-.01l-.58-.39.34-.67v-.01h5.05l4.79 3.2.44.29 1.17.78 1.59 1.07 4.81 3.2.44.28 1.16.78 1.6 1.06 4.8 3.2.43.29 1.17.78 1.6 1.07 4.8 3.2.44.29 1.16.77h.01z" fill="#192a56"/><path d="m128 0v2.136l-1.178-.784-.422-.281v-.007l-.589-.384-1.005-.68z" fill="#192a56"/><path d="m128 0-1.39.92-.21.14v.01h-.01l-4.79 3.2-1.6 1.07-1.6 1.06-4.8 3.2-1.6 1.07-1.6 1.06-4.8 3.2-1.6 1.07-1.6 1.06-4.79 3.2h-.01l-1.6 1.07" fill="none"/><path d="m128 0v2.14l-.59.39-1.01.68-4.8 3.2-1.6 1.07-1.6 1.06-4.8 3.2-1.6 1.07-1.6 1.06-4.8 3.2-1.6 1.06-1.6 1.08-4.8 3.2-.42.28-1.18.78-.59.39-.59-1.17-.42-.85-.59-1.19.58-.39h.01l1.16-.77.44-.29 6.4-4.27 1.17-.78 6.83-4.55 1.16-.78 6.84-4.55 1.17-.78 5.23-3.49z" fill="#192a56"/><path d="m67.194 0-1.005.68-.589.384v.007l-.422.281-1.178.784-.589.391-.589-1.175-.211-.428-.211-.421-.25-.496v-.007z" fill="#192a56"/><path d="m80 0-6.4 4.271-1.6 1.064" fill="none"/><path d="m83.2 0-8.01 5.34-1.59 1.06-1.6 1.06h-.01l-.58.4-.58-1.17-.43-.86-.59-1.17.59-.4 1.16-.77.43-.29 4.81-3.2z" fill="#192a56"/><path d="m96.006 0-14.406 9.599v.008l-1.6 1.064" fill="none"/><path d="m99.2 0-16 10.66-1.59 1.08h-.01l-1.6 1.06h-.01l-.58.39-.58-1.17-.43-.85-.59-1.18.59-.39 1.16-.78.44-.28 12.8-8.54z" fill="#192a56"/><path d="m96 64 32-21.333" fill="none"/><path d="m128 40.53v4.27l-6.4 4.27-1.16.77-.01.01-6.83 4.55-1.17.78-6.83 4.55-1.17.78-.01.01-5.22 3.48-1.01.68-.58.39h-.02l-.41.28-.01.01-.74.49h-.01l-.41.28h-.01l-.59.39-.34-.67-.25-.5-.01-.01-.2-.41-.21-.43-.25-.5-.34-.67v-.01l.58-.39h.01l.41-.27.01-.01.74-.49h.01l.01-.01.42-.28h.01l.58-.39 1.01-.68 4.8-3.2 1.6-1.06 1.6-1.07 4.8-3.2 1.6-1.07 1.6-1.07 4.8-3.2 1.6-1.06 1.6-1.07 4.8-3.2.42-.28z" fill="#192a56"/><path d="m96 64-32-21.333" fill="none"/><path d="m98.19 63.32-.34.68-.25.5-.21.42-.21.43-.01.01-.24.49-.34.67-.58-.39h-.01l-.42-.28h-.01l-.75-.5-.01-.01-.4-.27h-.01v-.01l-.59-.39-1-.67-4.81-3.2-.43-.29-1.16-.78h-.01l-1.6-1.07-4.8-3.19-.42-.29-1.18-.78-1.6-1.07-4.79-3.19h-.01l-.42-.29-1.18-.78-1.59-1.07-4.81-3.2-.42-.28-1.18-.78v-.01l-.59-.39.59-1.18.42-.84.59-1.18.59.39 1.18.79.42.28 4.8 3.2 1.6 1.07h.01l1.16.78h.01l.42.28 4.8 3.2 1.6 1.07 1.17.78h.01l.42.28 4.8 3.2 1.6 1.07 1.17.78h.01l.42.28 4.8 3.2 1.6 1.07v.01h.01l.41.28h.01v.01h.01l.73.48.01.01.42.28h.01z" fill="#192a56"/><path d="m128 0v2.136 38.398 2.135" fill="none"/><path d="m126.4 0h1.6v44.52h-1.6z" fill="#192a56"/><path d="m96 64v-42.665" fill="none"/><path d="m94.4 19.49h3.2v46.36h-3.2z" fill="#192a56"/><path d="m104 58.667v-42.666" fill="none"/><path d="m105.6 14.15v45.58l-1.17.78h-2.03v-45.58l1.17-.78z" fill="#192a56"/><path d="m120 48v-42.665" fill="none"/><path d="m121.6 3.49v45.58l-1.16.77-.01.01h-2.03v-45.58l1.17-.78z" fill="#192a56"/><path d="m112 53.334v-42.666" fill="none"/><path d="m113.6 8.82v45.58l-1.17.78h-2.03v-45.58l1.16-.78z" fill="#192a56"/><path d="m64 42.667v-42.665" fill="none"/><path d="m62.4 0h3.2v44.52h-3.2z" fill="#192a56"/><path d="m96 64v-42.665" fill="none"/><path d="m94.4 19.49h3.2v46.36h-3.2z" fill="#192a56"/><path d="m88 58.667v-42.666" fill="none"/><path d="m86.4 14.15h3.2v46.36h-3.2z" fill="#192a56"/><path d="m72 48v-42.665" fill="none"/><path d="m70.4 3.49h3.2v46.36h-3.2z" fill="#192a56"/><path d="m80 53.334v-42.666" fill="none"/><path d="m78.4 8.82h3.2v46.36h-3.2z" fill="#192a56"/><path d="m128 0v2.136l-1.178-.784-.422-.281h-.006l-.583-.391.339-.673v-.007z" fill="#192a56"/><path d="m128 0v2.136l-.589.391-.589-1.175-.211-.428-.211-.421-.25-.496v-.007z" fill="#192a56"/><path d="m128 40.533v4.264l-.429-.28-1.171-.784-.589-.391.589-1.175.422-.85.589-1.175z" fill="#192a56"/><path d="m128 0v2.136 38.398 2.135" fill="none"/><path d="m126.4 0h1.6v44.52h-1.6z" fill="#192a56"/><path d="m2.189 127.32-.339.68h-1.85v-2.136l.429.288h.006l.743.496.422.28h.006z" fill="#192a56"/><path d="m1.85 128h-1.85v-2.136l.589-.391.339.679.25.496.211.428.211.421z" fill="#192a56"/><path d="m0 126.152h1.6v1.847h-1.6z" fill="#192a56"/><path d="m3.194 128h-3.194v-2.136l.429.288h.006l.743.496.422.28v.008l.589.384z" fill="#192a56"/><path d="m64 127.998-8-5.333-8-5.333-8-5.333-8-5.334" fill="none"/><path d="m64 127.998-8-5.333-8-5.333-8-5.333-8-5.334" fill="none"/><path d="m66.19 127.32-.34.68h-5.05l-4.79-3.2-.43-.29-1.18-.78-1.59-1.07-4.8-3.2-.44-.28-1.17-.79-1.59-1.06-4.81-3.2-.42-.28-1.18-.78-1.6-1.07-4.8-3.21-.43-.28-1.17-.78-.59-.39.59-1.18.42-.85.59-1.17.59.39 1.18.78.42.28 4.8 3.2 1.6 1.08 1.18.78.42.28 4.8 3.2 1.6 1.06v.01h.01l1.16.78.43.28 4.8 3.2 1.6 1.07v.01h.01l1.16.77.43.28 4.8 3.2 1.01.68.59.39.43.29h.01l.74.5.42.28h.01z" fill="#192a56"/><path d="m65.85 128h-5.044l1.005-.68.589-.384v-.008l.422-.28.743-.496h.006l.429-.288.589-.391.339.679.25.496.211.428.211.421z" fill="#192a56"/><path d="m0 127.998 32-21.333" fill="none"/><path d="m34.19 107.34-.59.39-1.17.78-.43.28-6.4 4.28-1.18.78-6.82 4.54-1.17.79-6.83 4.55-1.18.78-5.22 3.49h-3.2v-2.14l.59-.39 1.01-.68 4.8-3.2 1.6-1.06 1.6-1.07 4.8-3.2 1.6-1.07 1.6-1.06 4.8-3.2 1.6-1.06 1.6-1.08 4.8-3.2.42-.28 1.18-.78.59-.39.59 1.17.42.85z" fill="#192a56"/><path d="m15.994 128 22.406-14.935 1.6-1.064" fill="none"/><path d="m42.19 112.67-.59.4-1.17.78-.43.28-20.81 13.87h-6.4l24.01-16 1.6-1.06v-.01l1.6-1.06.59-.4.59 1.18.42.85z" fill="#192a56"/><path d="m56 122.664-1.6 1.065-6.4 4.271" fill="none"/><path d="m58.19 123.34-.58.4h-.01l-1.16.77-.43.29-4.81 3.2h-6.4l8.01-5.34 1.59-1.06h.01l1.59-1.06h.01l.58-.4.58 1.17.43.86z" fill="#192a56"/><path d="m62.4 126.152h3.2v1.847h-3.2z" fill="#192a56"/><path d="m0 126.152h1.6v1.847h-1.6z" fill="#192a56"/><path d="m67.194 128h-5.044l.25-.503.211-.421.211-.428.25-.496.339-.679.589.391.429.288h.006l.743.496.422.28v.008l.589.384z" fill="#192a56"/><path d="m128 127.998-8-5.333-8-5.333-8-5.333-8-5.334" fill="none"/><path d="m128 127.998-8-5.333-8-5.333-8-5.333-8-5.334" fill="none"/><path d="m128 125.86v2.14h-3.2l-4.79-3.2-.43-.29-1.18-.78-1.59-1.07-4.8-3.2-.44-.28-1.17-.79-1.59-1.06-4.81-3.2-.42-.28-1.18-.78-1.6-1.07-4.8-3.21-.43-.28-1.17-.78-.59-.39.59-1.18.42-.85.59-1.17.59.39 1.18.78.42.28 4.8 3.2 1.6 1.08 1.18.78.42.28 4.8 3.2 1.6 1.06v.01h.01l1.16.78.43.28 4.8 3.2 1.6 1.07v.01h.01l1.16.77.43.28 4.8 3.2 1.01.68z" fill="#192a56"/><path d="m128 125.864v2.136h-3.194l1.005-.68.589-.384v-.008l.422-.28.743-.496h.006z" fill="#192a56"/><path d="m64 127.998 32-21.333" fill="none"/><path d="m98.19 107.34-.59.39-1.17.78-.43.28-6.4 4.28-1.18.78-6.82 4.54-1.17.79-6.83 4.55-1.18.78-5.22 3.49h-5.05l-.34-.68.58-.39h.01l.42-.28.74-.5h.01l.43-.29.59-.39 1.01-.68 4.8-3.2 1.6-1.06 1.6-1.07 4.8-3.2 1.6-1.07 1.6-1.06 4.8-3.2 1.6-1.06 1.6-1.08 4.8-3.2.42-.28 1.18-.78.59-.39.59 1.17.42.85z" fill="#192a56"/><path d="m79.994 128 22.406-14.935 1.6-1.064" fill="none"/><path d="m106.19 112.67-.59.4-1.17.78-.43.28-20.81 13.87h-6.4l24.01-16 1.6-1.06v-.01l1.6-1.06.59-.4.59 1.18.42.85z" fill="#192a56"/><path d="m120 122.664-1.6 1.065-6.4 4.271" fill="none"/><g fill="#192a56"><path d="m122.19 123.34-.58.4h-.01l-1.16.77-.43.29-4.81 3.2h-6.4l8.01-5.34 1.59-1.06h.01l1.59-1.06h.01l.58-.4.58 1.17.43.86z"/><path d="m126.4 126.152h1.6v1.847h-1.6z"/><path d="m62.4 126.152h3.2v1.847h-3.2z"/><path d="m128 125.864v2.136h-1.85l.25-.503.211-.421.211-.428.25-.496.339-.679z"/><path d="m128 125.864v2.136h-1.85l-.339-.68.583-.392h.006l.422-.28.743-.496h.006z"/><path d="m126.4 126.152h1.6v1.847h-1.6z"/><path d="m2.189 84.658-.589 1.175-.422.85-.589 1.175-.589-.392v-4.263l.429.28 1.171.784z"/></g><path d="m32 64-8-5.333-8-5.333-8-5.334-8-5.333" fill="none"/><path d="m32 64-8-5.333-8-5.333-8-5.334-8-5.333" fill="none"/><path d="m34.19 63.32v.01l-.34.67-.25.5-.21.43-.2.4v.01l-.01.01-.25.5-.34.67-.59-.39h-.01l-.41-.28h-.01l-.74-.49-.01-.01-.41-.28h-.02l-.58-.39-1.01-.68-4.8-3.2-.42-.28-.01-.01-1.17-.78-1.6-1.06-4.79-3.2-.44-.29-1.17-.78-1.59-1.07-4.81-3.2-.42-.28-.02-.01-1.16-.77v-.01l-1.6-1.06-4.8-3.2v-4.27l1.18.79.42.28 4.8 3.2 1.6 1.07 1.18.78.42.28 4.8 3.2 1.6 1.07h.01l1.16.78.43.29 4.8 3.2 1.6 1.06 1.18.79.42.28 4.8 3.2 1.01.68.58.39h.01l.42.28.02.01.74.49.01.01.41.27h.01z" fill="#192a56"/><path d="m0 85.333 32-21.333" fill="none"/><path d="m34.19 64.67v.01l-.59.39h-.01l-.4.27-.01.01-.75.5h-.01l-.42.28h-.01l-.58.39-1.01.68-4.8 3.2-1.6 1.07-1.6 1.06-4.8 3.2-3.2 2.14-4.8 3.2-1.6 1.06-1.6 1.07-4.8 3.2-.42.28-1.18.79v-4.27l6.4-4.27 1.16-.77.02-.01 6.82-4.55 1.17-.78 6.83-4.55 1.17-.78.01-.01 5.22-3.48 1.01-.68.59-.38v-.01l.42-.28.01-.01.73-.48h.01l.01-.01.41-.28h.01l.59-.39.34.67v.01l.25.49.01.01v.01l.2.41.21.42.25.5z" fill="#192a56"/><path d="m2.189 43.342-.589.391-1.171.784-.429.28v-4.264l.589-.391.589 1.175.422.85z" fill="#192a56"/><path d="m8 47.997h-.006l-1.594 1.064v.008l-6.4 4.264" fill="none"/><path d="m10.19 48.68-.58.39h-.01l-1.16.77-.02.01-.42.28-8 5.34v-4.27l4.8-3.2 1.6-1.07h.01l1.59-1.06.59-.39.59 1.17.42.85z" fill="#192a56"/><path d="m16 53.333-1.6 1.064-14.4 9.607" fill="none"/><path d="m18.19 54.01-.58.39h-.01l-1.16.78-.43.29-16.01 10.66v-4.26l12.81-8.54 1.59-1.06h.01l1.59-1.07h.01l.58-.39.58 1.17.43.86z" fill="#192a56"/><path d="m0 127.998 32-21.333" fill="none"/><path d="m34.19 107.34-.59.39-1.17.78-.43.28-6.4 4.28-1.18.78-6.82 4.54-1.17.79-6.83 4.55-1.18.78-5.22 3.49h-3.2v-2.14l.59-.39 1.01-.68 4.8-3.2 1.6-1.06 1.6-1.07 4.8-3.2 1.6-1.07 1.6-1.06 4.8-3.2 1.6-1.06 1.6-1.08 4.8-3.2.42-.28 1.18-.78.59-.39.59 1.17.42.85z" fill="#192a56"/><path d="m2.189 127.32-.339.68h-1.85v-2.136l.429.288h.006l.743.496.422.28h.006z" fill="#192a56"/><path d="m32 106.665v-42.665" fill="none"/><path d="m30.4 62.15h3.2v46.36h-3.2z" fill="#192a56"/><path d="m0 128v-1.848-.288-38.398-2.135" fill="none"/><path d="m0 83.48h1.6v44.52h-1.6z" fill="#192a56"/><path d="m8 122.665v-42.665" fill="none"/><path d="m9.6 78.15v45.58l-1.18.78h-2.02v-45.58l1.16-.77.02-.01z" fill="#192a56"/><path d="m24 111.999v-42.666" fill="none"/><path d="m25.6 67.49v45.58l-1.18.78h-2.02v-45.58l1.17-.78z" fill="#192a56"/><path d="m16 117.332v-42.666" fill="none"/><path d="m17.6 72.82v45.57l-1.17.79h-2.03v-45.58l1.17-.78z" fill="#192a56"/><path d="m0 128v-1.848-.288-38.398-2.135" fill="none"/><path d="m0 83.48h1.6v44.52h-1.6z" fill="#192a56"/><path d="m87.57 67.49-1.17.78m8.21-5.19-.21-.14v-.01h-.01l-4.79-3.19v-.01l-1.6-1.06-1.6-1.07-4.79-3.2h-.01l-1.6-1.07-1.59-1.06h-.01l-1-.67-3.79-2.53h-.01l-1.6-1.07h-.01l-.4-.27-.07-.04-.02-.02-1.08-.72-.02-.01v-.01l-4.8-3.19v-.01l-1.6-1.06-1.6 1.06v.01l-4.8 3.19v.01l-.52.34-1.08.72-1.6 1.07-4.8 3.2-1.6 1.06-1.6 1.07-4.8 3.2-1.6 1.07-1.08.72-.52.34v.01l-4.79 3.19h-.01v.01l-.21.14-1.39.92v42.67l1.6 1.06v.01l4.8 3.19v.01l1.6 1.06 1.6 1.07 4.79 3.19.01.01h.01l.12.08.02.01.11.07.02.02 1.32.88 1.6 1.07h.01l4.79 3.2h.01l1.58 1.06h.01v.01l1.6 1.06v.01h.01l4.78 3.19h.01v.01l.21.14 1.39.92 1.39-.92.21-.14v-.01h.01l4.79-3.19v-.01l.08-.05 1.44-.96.08-.05v-.01l1.6-1.06 4.8-3.2 1.6-1.07 1.6-1.06.56-.38 4.24-2.82 1.6-1.07 1.08-.72.52-.34v-.01l4.8-3.19v-.01l1.6-1.06v-42.67z" fill="none"/><path d="m64 85.333-32-21.333" fill="none"/><path d="m64.586 87.856-34.772-23.18 1.6-3.199 34.772 23.18z" fill="#192a56"/><path d="m96 64-8-5.333-8-5.333-8-5.334-8-5.333" fill="none"/><path d="m64 85.333 32-21.333" fill="none"/><path d="m98.19 64.68-.58.39h-.02l-.41.28-.01.01-.74.49h-.01l-.41.28-.01.01-1.6 1.07-4.8 3.2-1.6 1.06-1.6 1.07-4.8 3.2-1.6 1.06-1.6 1.07-4.8 3.2-1.6 1.06-1.6 1.07-4.8 3.2-.42.28-1.18.79-.59.39-.59-1.18-.42-.84-.59-1.18.59-.39v-.01l1.18-.78.42-.28 6.4-4.27 1.18-.78 6.82-4.55 1.18-.78 6.82-4.55 1.17-.78 5.24-3.49 1-.67.59-.39.41-.28.01-.01.74-.49h.01l.01-.01.42-.28h.01l.58-.39.34.67.24.49.01.01.21.43.21.42.25.5z" fill="#192a56"/><path d="m32 64 32-21.333" fill="none"/><path d="m66.19 43.34-.59.39v.01l-1.18.78-.42.28-6.4 4.27-1.18.78-6.82 4.55-1.18.78-6.82 4.55-1.17.78-5.24 3.49-1 .67-.59.39v.01h-.01l-.4.26v.01l-.01.01-.75.5h-.01l-.42.28h-.01l-.58.39-.33-.67-.25-.49-.01-.01-.21-.43-.21-.42-.25-.5-.34-.68.58-.39h.01l.42-.28.01-.01.73-.48h.01v-.01h.01l.41-.28h.01v-.01l1.6-1.07 4.8-3.2 1.6-1.06 1.6-1.07 4.8-3.2 1.6-1.06 1.6-1.07 4.8-3.2 1.6-1.06 1.6-1.07 4.8-3.2.42-.28 1.18-.79.59-.39.59 1.18.42.84z" fill="#192a56"/><path d="m40 69.333 32-21.333" fill="none"/><path d="m39.414 71.857-1.6-3.2 34.772-23.18 1.6 3.199z" fill="#192a56"/><path d="m56 80 32-21.333" fill="none"/><path d="m55.414 82.523-1.6-3.2 34.772-23.179 1.6 3.199z" fill="#192a56"/><path d="m48 74.666 32-21.332" fill="none"/><path d="m47.414 77.19-1.6-3.2 34.772-23.18 1.6 3.2z" fill="#192a56"/><path d="m64 127.998 32-21.333" fill="none"/><path d="m98.19 107.34-.59.39-1.17.78-.43.28-6.4 4.28-1.18.78-6.82 4.54-1.17.79-6.83 4.55-1.18.78-5.22 3.49h-5.05l-.34-.68.58-.39h.01l.42-.28.74-.5h.01l.43-.29.59-.39 1.01-.68 4.8-3.2 1.6-1.06 1.6-1.07 4.8-3.2 1.6-1.07 1.6-1.06 4.8-3.2 1.6-1.06 1.6-1.08 4.8-3.2.42-.28 1.18-.78.59-.39.59 1.17.42.85z" fill="#192a56"/><path d="m64 127.998-32-21.333" fill="none"/><path d="m66.19 127.32-.34.68h-5.05l-4.79-3.2-.43-.29-1.18-.78-1.59-1.07-4.8-3.2-.44-.28-1.17-.79-1.59-1.06-4.81-3.2-.42-.28-1.18-.78-1.6-1.07-4.8-3.21-.43-.28-1.17-.78-.59-.39.59-1.18.42-.85.59-1.17.59.39 1.18.78.42.28 4.8 3.2 1.6 1.08 1.18.78.42.28 4.8 3.2 1.6 1.06v.01h.01l1.16.78.43.28 4.8 3.2 1.6 1.07v.01h.01l1.16.77.43.28 4.8 3.2 1.01.68.59.39.43.29h.01l.74.5.42.28h.01z" fill="#192a56"/><path d="m96 106.665v-42.665" fill="none"/><path d="m94.4 62.15h3.2v46.36h-3.2z" fill="#192a56"/><path d="m64 127.998v-42.665" fill="none"/><path d="m62.4 83.483h3.2v44.517h-3.2z" fill="#192a56"/><path d="m72 122.665v-42.665" fill="none"/><path d="m73.6 78.15v45.58l-1.18.78h-2.02v-45.58l1.18-.78z" fill="#192a56"/><path d="m88 111.999v-42.666" fill="none"/><path d="m89.6 67.49v45.58l-1.18.78h-2.02v-45.58l1.17-.78z" fill="#192a56"/><path d="m80 117.332v-42.666" fill="none"/><path d="m81.6 72.82v45.57l-1.17.79h-2.03v-45.58l1.18-.78z" fill="#192a56"/><path d="m32 106.665v-42.665" fill="none"/><path d="m30.4 62.15h3.2v46.36h-3.2z" fill="#192a56"/><path d="m64 127.998v-42.665" fill="none"/><path d="m62.4 83.483h3.2v44.517h-3.2z" fill="#192a56"/><path d="m56 122.665v-42.665" fill="none"/><path d="m54.4 78.152h3.2v46.361h-3.2z" fill="#192a56"/><path d="m40 111.999v-42.666" fill="none"/><path d="m38.4 67.486h3.2v46.36h-3.2z" fill="#192a56"/><path d="m48 117.332v-42.666" fill="none"/><path d="m46.4 72.819h3.2v46.361h-3.2z" fill="#192a56"/><path d="m128 40.533v4.264l-.429-.28-1.171-.784-.589-.391.589-1.175.422-.85.589-1.175z" fill="#192a56"/><path d="m128 83.203v4.263l-.589.392-.589-1.175-.422-.85-.589-1.175.589-.391 1.171-.784z" fill="#192a56"/><path d="m96 64 32-21.333" fill="none"/><path d="m128 40.53v4.27l-6.4 4.27-1.16.77-.01.01-6.83 4.55-1.17.78-6.83 4.55-1.17.78-.01.01-5.22 3.48-1.01.68-.58.39h-.02l-.41.28-.01.01-.74.49h-.01l-.41.28h-.01l-.59.39-.34-.67-.25-.5-.01-.01-.2-.41-.21-.43-.25-.5-.34-.67v-.01l.58-.39h.01l.41-.27.01-.01.74-.49h.01l.01-.01.42-.28h.01l.58-.39 1.01-.68 4.8-3.2 1.6-1.06 1.6-1.07 4.8-3.2 1.6-1.07 1.6-1.07 4.8-3.2 1.6-1.06 1.6-1.07 4.8-3.2.42-.28z" fill="#192a56"/><path d="m104 69.332 1.6-1.064 22.4-14.935" fill="none"/><path d="m128 51.2v4.27l-20.8 13.86-1.6 1.07-1.6 1.07-.59.39-.59-1.18-.42-.85-.59-1.17.59-.39 1.16-.78.01-.01.43-.28z" fill="#192a56"/><path d="m128 74.667-6.4 4.264v.008l-1.6 1.064" fill="none"/><path d="m128 72.53v4.27l-4.8 3.2h-.01l-1.59 1.07-1.6 1.06-.59.39-.59-1.17-.42-.85-.59-1.18.59-.39 1.16-.77.02-.01.42-.28z" fill="#192a56"/><path d="m128 64.004-14.4 9.599-1.6 1.064" fill="none"/><path d="m128 61.87v4.26l-12.8 8.54h-.01l-1.59 1.06h-.01l-1.59 1.07h-.01l-.58.39-.58-1.17-.43-.86-.59-1.17.58-.39h.01l1.16-.78.43-.29z" fill="#192a56"/><path d="m128 125.864v2.136h-1.85l-.339-.68.583-.392h.006l.422-.28.743-.496h.006z" fill="#192a56"/><path d="m128 127.998-32-21.333" fill="none"/><path d="m128 125.86v2.14h-3.2l-4.79-3.2-.43-.29-1.18-.78-1.59-1.07-4.8-3.2-.44-.28-1.17-.79-1.59-1.06-4.81-3.2-.42-.28-1.18-.78-1.6-1.07-4.8-3.21-.43-.28-1.17-.78-.59-.39.59-1.18.42-.85.59-1.17.59.39 1.18.78.42.28 4.8 3.2 1.6 1.08 1.18.78.42.28 4.8 3.2 1.6 1.06v.01h.01l1.16.78.43.28 4.8 3.2 1.6 1.07v.01h.01l1.16.77.43.28 4.8 3.2 1.01.68z" fill="#192a56"/><path d="m128 128v-1.848-.288-38.398-2.135" fill="none"/><path d="m126.4 83.48h1.6v44.52h-1.6z" fill="#192a56"/><path d="m96 106.665v-42.665" fill="none"/><path d="m94.4 62.15h3.2v46.36h-3.2z" fill="#192a56"/><path d="m128 128v-1.848-.288-38.398-2.135" fill="none"/><path d="m126.4 83.48h1.6v44.52h-1.6z" fill="#192a56"/><path d="m120 122.665v-42.665" fill="none"/><path d="m118.4 78.15h3.2v46.36h-3.2z" fill="#192a56"/><path d="m104 111.999v-42.666" fill="none"/><path d="m102.4 67.49h3.2v46.36h-3.2z" fill="#192a56"/><path d="m112 117.332v-42.666" fill="none"/><path d="m110.4 72.82h3.2v46.36h-3.2z" fill="#192a56"/><path d="m96 64-8-5.333-8-5.333-8-5.334-8-5.333" fill="none"/><path d="m96.586 66.524-34.772-23.181 1.6-3.2 34.772 23.181z" fill="#192a56"/><path d="m24 58.667v-42.666" fill="none"/><path d="m22.4 14.15h3.2v46.36h-3.2z" fill="#192a56"/><path d="m24 58.668-1.6 1.064-22.4 14.935" fill="none"/><path d="m26.19 59.34-.59.39h-.01l-1.15.78-.01.01-.43.28-24 16v-4.27l20.8-13.86 1.6-1.07 1.6-1.07.59-.39.59 1.18.42.85z" fill="#192a56"/><path d="m128 83.2v4.27l-1.18-.79-.42-.28-4.8-3.2-1.6-1.07-1.18-.78-.42-.28-4.8-3.2-1.6-1.07h-.01l-1.16-.78-.43-.29-4.8-3.2-1.6-1.06-1.18-.79-.42-.28-4.8-3.2-1.01-.68-.58-.39h-.01l-.42-.28h-.01l-.75-.5-.01-.01-.4-.27h-.01l-.59-.39v-.01l.34-.67.25-.5.21-.42.2-.42.01-.01.25-.49.01-.01.33-.67.59.39h.01l.41.28.01.01h.01l.73.48.01.01.42.28v.01l.59.38 1.01.68 4.8 3.2.42.28.01.01 1.17.78 1.6 1.06 4.79 3.2.44.29 1.17.78 1.59 1.07h.01l4.8 3.2.42.28.02.01 1.16.77v.01l1.59 1.06h.01z" fill="#192a56"/><path d="m112 117.329-1.6 1.064-14.406 9.607" fill="none"/><path d="m114.19 118.01-.58.39h-.01l-1.16.78-.43.28-12.81 8.54h-6.4l16.01-10.67 1.58-1.07h.02l1.59-1.06h.01l.58-.39.58 1.17.43.85z" fill="#192a56"/><path d="m48 117.329-1.6 1.064-14.406 9.607" fill="none"/><path d="m50.19 118.01-.58.39h-.01l-1.16.78-.43.28-12.81 8.54h-6.4l16.01-10.67 1.58-1.07h.02l1.59-1.06h.01l.58-.39.58 1.17.43.85z" fill="#192a56"/><path d="m112.006 0-22.406 14.935-1.6 1.064" fill="none"/><path d="m115.21 0-24.01 16-1.6 1.07-1.6 1.06-.59.4-.59-1.18-.42-.85-.59-1.17.59-.4 1.17-.78.43-.29 20.81-13.86z" fill="#192a56"/></svg>