<svg width="24px" height="24px" viewBox="0 0 16 12.8" xmlns="http://www.w3.org/2000/svg">
    <path
        d="m7.4 0c.1.1.2.2.2.3l.4 2.1 2.1.4c.1 0 .3.1.3.2.1.1 0 .3 0 .4l-1 1.4c-.1 0-.1 0-.2 0-.6 0-1.1.2-1.6.4 0-1.3-1.1-2.4-2.4-2.4s-2.4 1.1-2.4 2.4 1.1 2.4 2.4 2.4c.2 0 .4 0 .6-.1-.9.5-1.6 1.4-1.8 2.4l-.6.4c-.1.1-.3.1-.4 0s-.2-.2-.2-.3l-.3-2.1-2.2-.3c-.1 0-.2-.1-.3-.2 0-.2 0-.3.1-.4l1.2-1.8-1.2-1.8c-.1-.1-.1-.2-.1-.4.1-.1.2-.2.3-.2l2.1-.4.4-2.1c0-.1.1-.2.2-.3s.3 0 .4 0l1.8 1.2 1.8-1.1c.1-.1.2-.1.4-.1zm-3.8 5.2c0-.9.7-1.6 1.6-1.6s1.6.7 1.6 1.6-.7 1.6-1.6 1.6-1.6-.7-1.6-1.6zm12.4 5.6c0 1.1-.9 2-2 2h-6.8c-1.3 0-2.4-1.1-2.4-2.4 0-1.2.9-2.2 2-2.4 0-1.3 1.1-2.4 2.4-2.4.9 0 1.6.5 2.1 1.2.3-.2.7-.4 1.1-.4 1.1 0 2 .9 2 2v.4c.9.2 1.6 1 1.6 2z"
        fill="#fbc531" />
</svg>